<?xml version="1.0" standalone="no"?>
<!DOCTYPE svg PUBLIC "-//W3C//DTD SVG 20010904//EN"
 "http://www.w3.org/TR/2001/REC-SVG-20010904/DTD/svg10.dtd">
<svg version="1.0" xmlns="http://www.w3.org/2000/svg"
 width="1032.000000pt" height="1032.000000pt" viewBox="0 0 1032.000000 1032.000000"
 preserveAspectRatio="xMidYMid meet">
<metadata>
Created by potrace 1.14, written by Peter Selinger 2001-2017
</metadata>
<g transform="translate(0.000000,1032.000000) scale(0.100000,-0.100000)"
fill="#000000" stroke="none">
<path d="M7075 10251 c-70 -17 -115 -49 -225 -162 -68 -69 -131 -125 -152
-133 -58 -25 -122 -21 -303 19 -93 20 -181 39 -195 41 -163 29 -388 59 -530
72 -149 13 -643 6 -815 -13 -149 -16 -303 -39 -415 -61 -146 -29 -156 -32
-178 -38 -9 -3 -28 -7 -42 -10 -108 -20 -411 -110 -560 -165 -248 -93 -630
-290 -860 -444 -75 -50 -361 -256 -370 -267 -3 -3 -49 -39 -103 -79 -98 -73
-98 -73 -145 -66 -85 14 -344 13 -446 -1 -145 -20 -289 -62 -392 -114 -192
-98 -274 -181 -521 -525 -39 -55 -75 -104 -80 -110 -24 -30 -157 -232 -200
-305 -43 -74 -128 -244 -153 -305 -39 -97 -53 -140 -71 -210 -29 -112 -34
-154 -33 -285 2 -205 60 -353 194 -493 120 -125 272 -219 463 -286 148 -52
267 -75 387 -75 225 1 398 55 629 199 154 96 268 198 481 431 125 136 225 269
398 528 124 186 150 220 204 262 24 19 144 123 172 149 9 9 240 197 319 261 9
8 21 14 26 14 5 0 11 4 13 8 10 26 284 189 468 279 190 94 402 166 546 187 22
4 51 9 64 11 14 3 59 8 100 12 298 24 540 -48 685 -205 27 -29 71 -116 80
-158 19 -82 11 -194 -17 -254 -42 -88 -77 -115 -343 -255 -49 -26 -121 -65
-160 -85 -147 -79 -355 -189 -470 -250 -66 -35 -133 -71 -150 -80 -16 -10 -75
-41 -130 -70 -55 -29 -122 -65 -150 -80 -27 -15 -99 -53 -160 -85 -60 -32
-141 -74 -180 -95 -71 -38 -187 -99 -362 -191 -54 -29 -125 -66 -158 -84 -33
-18 -89 -48 -125 -67 -36 -20 -173 -94 -305 -166 -358 -194 -762 -401 -840
-431 -155 -59 -471 -66 -719 -17 -104 20 -135 26 -166 30 -19 3 -62 10 -95 16
-176 30 -228 36 -310 35 -153 -3 -270 -49 -359 -140 -75 -76 -137 -202 -151
-303 -2 -15 -6 -40 -9 -57 -8 -42 -15 -131 -21 -270 -4 -66 -8 -145 -11 -175
-13 -153 -12 -358 1 -427 25 -124 88 -218 179 -265 34 -17 181 -59 253 -72 47
-9 117 -52 144 -89 29 -40 44 -76 134 -332 31 -88 60 -169 65 -180 5 -11 20
-51 33 -90 90 -256 233 -541 405 -805 63 -98 202 -290 255 -356 9 -10 41 -50
72 -89 153 -192 374 -416 570 -580 39 -32 72 -61 75 -65 3 -3 50 -40 105 -82
259 -196 673 -444 945 -568 153 -69 214 -94 347 -144 52 -20 74 -33 79 -49 7
-25 79 -171 113 -232 173 -306 432 -516 731 -591 98 -25 111 -28 195 -40 28
-3 58 -8 68 -10 10 -2 57 -6 105 -9 48 -3 103 -8 122 -11 58 -7 691 -8 750 0
117 15 212 36 301 67 245 83 403 227 488 444 47 123 65 226 65 390 0 108 -8
175 -34 276 -134 523 -509 816 -1235 963 -142 29 -186 36 -325 50 -36 4 -83 9
-105 11 -22 3 -110 7 -195 10 -169 6 -205 10 -265 27 -22 6 -42 12 -45 13 -77
18 -356 120 -554 202 -381 157 -695 351 -895 553 -278 281 -434 558 -434 770
0 42 12 127 23 154 5 14 8 26 6 26 -3 0 9 28 26 62 75 155 257 244 411 200 41
-11 196 -98 317 -176 46 -31 536 -338 558 -351 59 -34 513 -319 600 -377 24
-15 45 -28 47 -28 4 0 397 -243 880 -545 193 -120 427 -266 520 -323 292 -180
329 -207 416 -302 181 -197 228 -282 379 -686 163 -435 189 -489 272 -555 105
-84 188 -113 329 -112 151 2 327 66 599 220 58 33 146 82 195 108 295 157 359
223 371 380 5 62 1 87 -35 210 -46 156 -50 208 -22 263 11 21 81 110 158 198
76 88 165 192 198 231 96 113 369 513 473 693 54 94 212 410 212 424 0 3 11
29 24 58 71 155 164 436 231 698 11 44 64 322 70 365 4 28 8 64 10 80 3 17 7
57 10 90 3 33 8 76 10 95 27 248 27 602 0 874 -3 21 -7 70 -10 110 -9 114 -26
238 -49 372 -3 13 24 63 75 140 257 385 334 740 229 1054 -26 79 -63 173 -94
245 -8 17 -20 46 -29 65 -105 244 -214 468 -289 590 -39 65 -119 183 -128 190
-3 3 -19 23 -36 44 -55 75 -169 188 -249 249 -254 192 -540 215 -840 67 -330
-163 -549 -417 -639 -740 -24 -89 -31 -147 -31 -290 0 -225 14 -353 60 -524
64 -241 119 -379 297 -746 134 -276 147 -309 165 -410 2 -14 15 -79 28 -145
13 -66 27 -140 31 -165 3 -25 8 -52 9 -60 5 -29 14 -105 20 -171 4 -36 8 -79
10 -95 8 -68 18 -224 18 -289 1 -87 -13 -342 -18 -358 -2 -7 -6 -41 -9 -77 -6
-89 -38 -229 -81 -356 -116 -347 -302 -580 -520 -654 -59 -20 -63 -21 -145
-22 -205 -2 -343 114 -334 281 14 261 20 438 29 816 2 110 7 290 10 400 3 110
7 295 10 410 9 411 16 712 20 835 2 69 7 211 10 315 3 105 8 222 10 260 6 83
13 218 20 370 16 393 19 426 41 508 56 200 174 396 406 672 282 335 315 384
357 516 31 98 3 268 -61 364 -94 142 -191 218 -630 493 -281 176 -386 213
-513 183z m150 -310 c35 -16 84 -43 109 -60 24 -17 47 -31 49 -31 8 0 365
-229 427 -273 71 -51 146 -130 172 -180 22 -45 20 -114 -5 -163 -13 -24 -187
-248 -206 -264 -32 -28 -331 -410 -331 -424 0 -3 -13 -24 -29 -48 -77 -116
-165 -324 -190 -450 -20 -102 -23 -135 -36 -448 -7 -187 -15 -338 -20 -407 -3
-34 -7 -141 -10 -237 -3 -97 -7 -240 -10 -318 -9 -320 -19 -691 -30 -1208 -3
-124 -7 -304 -10 -400 -3 -96 -7 -272 -10 -390 -3 -118 -8 -253 -10 -300 -15
-293 -15 -316 5 -388 99 -355 538 -524 918 -351 122 55 270 171 358 280 27 33
114 158 114 163 0 2 15 30 33 63 18 32 45 87 60 123 16 36 32 74 37 85 27 63
92 290 105 365 3 19 7 42 10 50 4 15 16 112 20 165 15 175 18 242 19 375 0
136 -5 243 -18 345 -3 17 -7 64 -11 105 -7 77 -12 126 -20 170 -3 14 -7 41
-10 60 -5 31 -19 111 -32 180 -2 14 -9 45 -14 70 -6 25 -12 56 -14 70 -6 34
-13 68 -20 90 -3 10 -8 27 -10 38 -7 36 -68 175 -147 335 -223 451 -308 694
-334 962 -21 212 -9 368 38 493 76 203 246 376 479 487 224 106 410 70 602
-118 34 -34 80 -84 102 -112 22 -27 43 -52 46 -55 26 -24 139 -216 213 -363
99 -198 110 -222 198 -437 32 -80 63 -154 68 -165 80 -182 51 -412 -82 -669
-23 -44 -78 -135 -124 -203 -117 -175 -120 -190 -70 -483 8 -47 23 -195 31
-320 3 -36 8 -108 12 -160 13 -179 8 -470 -11 -613 -3 -17 -8 -68 -12 -112 -4
-44 -8 -82 -9 -85 0 -3 -5 -32 -9 -65 -8 -62 -9 -66 -21 -130 -4 -22 -9 -51
-11 -65 -32 -184 -156 -591 -231 -757 -12 -28 -23 -55 -23 -59 0 -21 -183
-387 -245 -489 -42 -70 -192 -295 -293 -440 -65 -93 -112 -155 -140 -183 -15
-16 -49 -55 -77 -88 -27 -32 -62 -72 -77 -89 -92 -102 -182 -215 -207 -259
-41 -72 -63 -156 -63 -239 0 -81 8 -120 52 -261 16 -54 30 -102 30 -107 0 -12
-36 -43 -68 -60 -15 -8 -29 -16 -32 -19 -3 -3 -39 -23 -80 -45 -41 -21 -145
-77 -230 -125 -85 -47 -182 -99 -215 -114 -133 -64 -274 -91 -340 -66 -73 28
-97 75 -270 545 -139 375 -227 518 -468 763 -80 81 -112 104 -410 288 -114 71
-220 137 -235 146 -15 10 -34 21 -42 25 -19 10 -228 140 -470 293 -102 64
-246 154 -320 200 -309 191 -398 245 -445 275 -132 84 -299 188 -325 203 -37
22 -136 84 -220 137 -117 75 -394 250 -412 260 -9 6 -106 65 -215 132 -175
107 -313 182 -313 168 0 -2 -12 0 -27 6 -39 14 -167 19 -236 8 -311 -50 -532
-292 -574 -629 -29 -229 24 -420 192 -698 132 -219 433 -523 660 -667 33 -21
72 -46 87 -56 15 -11 30 -19 33 -19 3 0 29 -15 58 -33 70 -45 294 -157 392
-197 44 -18 84 -37 90 -41 5 -5 15 -9 23 -9 7 0 32 -8 55 -18 23 -11 67 -28
97 -40 30 -11 84 -32 120 -45 116 -44 316 -108 382 -123 31 -7 120 -13 253
-19 128 -5 249 -14 285 -19 14 -2 51 -7 84 -11 32 -4 68 -8 80 -10 11 -2 37
-6 56 -9 203 -32 460 -106 595 -171 174 -83 323 -207 401 -331 24 -39 44 -73
44 -76 0 -3 10 -27 22 -54 12 -27 23 -53 24 -59 2 -5 10 -35 18 -65 34 -123
38 -245 11 -400 -15 -92 -63 -186 -125 -249 -76 -76 -248 -151 -386 -166 -32
-4 -68 -9 -79 -11 -45 -10 -659 -2 -793 10 -76 7 -138 14 -172 21 -14 2 -42 7
-62 10 -49 7 -163 39 -213 60 -68 29 -197 120 -259 183 -98 100 -185 242 -285
462 -33 72 -94 126 -181 160 -19 7 -48 19 -65 26 -16 7 -79 32 -140 56 -169
66 -388 177 -594 300 -167 100 -428 270 -441 287 -3 3 -23 19 -45 36 -163 122
-457 394 -572 531 -117 139 -157 188 -232 287 -149 196 -292 419 -379 593
-105 208 -153 326 -287 704 -110 307 -133 356 -206 435 -64 68 -176 131 -274
155 -27 6 -57 14 -65 16 -8 2 -39 9 -68 15 -75 17 -85 40 -86 189 0 63 3 151
7 195 4 44 9 132 12 195 14 305 33 400 93 463 47 49 78 59 185 58 53 0 101 -2
105 -5 4 -2 23 -7 42 -10 55 -8 322 -55 350 -61 22 -4 58 -11 114 -21 45 -8
197 -18 281 -17 173 0 306 18 438 60 83 26 498 232 772 383 68 37 179 98 240
130 28 15 115 62 195 105 80 42 183 98 230 123 47 25 112 59 145 77 33 18 103
55 155 82 241 127 449 238 495 263 28 15 100 53 160 85 61 32 133 70 160 85
28 15 100 53 160 85 61 32 139 74 175 93 67 36 129 69 290 154 184 98 226 121
305 168 166 100 253 222 291 411 32 160 1 346 -83 487 -43 73 -137 174 -203
219 -101 69 -281 144 -376 158 -22 4 -46 8 -54 10 -97 26 -365 23 -510 -5 -30
-6 -66 -13 -80 -15 -86 -12 -276 -69 -412 -124 -78 -31 -305 -143 -408 -202
-148 -84 -413 -272 -535 -380 -16 -15 -109 -94 -205 -176 -173 -149 -220 -194
-220 -213 0 -6 -4 -10 -8 -10 -4 0 -16 -15 -26 -32 -19 -33 -212 -323 -228
-343 -4 -5 -41 -54 -82 -108 -123 -164 -347 -400 -462 -489 -126 -96 -264
-168 -388 -204 -66 -19 -99 -22 -200 -20 -67 2 -131 6 -144 9 -12 4 -30 9 -40
11 -36 9 -149 50 -208 76 -159 71 -290 191 -330 301 -62 174 -21 401 128 694
76 151 208 349 442 665 178 240 309 319 606 366 74 11 272 11 356 -1 91 -13
167 -4 224 25 21 11 138 94 261 186 336 251 528 373 818 518 259 130 613 251
906 311 11 2 54 11 95 20 41 9 86 18 100 20 14 2 34 6 45 8 44 10 149 24 240
32 38 4 78 9 89 11 40 8 255 17 435 18 168 1 288 -4 389 -18 20 -3 75 -10 122
-16 123 -15 160 -20 194 -26 17 -3 54 -10 81 -14 66 -12 101 -19 155 -31 76
-18 83 -19 165 -35 120 -24 184 -24 295 0 21 4 68 23 110 44 19 9 91 72 159
140 67 67 127 122 132 122 5 0 38 -13 74 -29z"/>
<path d="M5065 6569 c-44 -9 -109 -27 -145 -39 -73 -26 -217 -94 -241 -116 -8
-8 -19 -14 -24 -14 -4 0 -39 -25 -78 -56 -201 -163 -344 -375 -412 -612 -34
-117 -36 -133 -39 -312 -3 -143 1 -190 29 -323 11 -55 65 -190 105 -264 175
-324 516 -559 887 -610 104 -14 301 -7 403 14 441 94 794 436 905 877 12 50
26 120 30 156 8 73 7 241 -1 285 -24 133 -37 184 -69 271 -21 54 -46 111 -56
126 -11 14 -19 29 -19 32 0 19 -99 152 -165 224 -186 200 -437 329 -720 371
-98 15 -301 10 -390 -10z m426 -292 c135 -32 278 -100 368 -174 81 -66 102
-87 154 -156 133 -173 188 -345 182 -566 -3 -143 -24 -236 -76 -347 -184 -392
-588 -598 -997 -508 -343 75 -609 332 -689 664 -34 143 -23 360 26 503 89 259
309 480 557 561 141 46 336 55 475 23z"/>
</g>
</svg>
